<?xml version="1.0" encoding="UTF-8"?>
<svg width="16px" height="16px" viewBox="0 0 16 16" version="1.1" xmlns="http://www.w3.org/2000/svg" xmlns:xlink="http://www.w3.org/1999/xlink">
    <!-- Generator: sketchtool 59.1 (101010) - https://sketch.com -->
    <title>E9775D12-382E-4E06-A766-75EC71EAD1FE</title>
    <desc>Created with sketchtool.</desc>
    <g id="Style-Guide" stroke="none" stroke-width="1" fill="none" fill-rule="evenodd">
        <g id="styleguide_v01" transform="translate(-116.000000, -1834.000000)" fill="#FFFFFF" fill-rule="nonzero">
            <g id="Notifcation-Banners" transform="translate(100.000000, 1755.000000)">
                <g id="Notifications" transform="translate(0.000000, 63.000000)">
                    <g id="Success">
                        <g id="Text" transform="translate(16.000000, 16.000000)">
                            <path d="M16,8 C16,3.58171623 12.4182838,0 8,0 C3.58171623,0 0,3.58171623 0,8 C0,12.4182838 3.58171623,16 8,16 C12.4182838,16 16,12.4182838 16,8 Z M7.07465978,12.2359501 C6.87307838,12.4374685 6.54627646,12.4374685 6.34469506,12.2359186 L2.98985635,8.88107989 C2.78833795,8.67952999 2.78833795,8.35269657 2.98985635,8.15114667 L3.71978957,7.42124496 C3.92133947,7.21969506 4.24817288,7.21969506 4.44972278,7.42124496 L6.70967742,9.6812311 L11.5502772,4.8406313 C11.7518586,4.6390499 12.078692,4.6390499 12.2802104,4.8406313 L13.0101436,5.57053301 C13.211662,5.77208291 13.211662,6.09891633 13.0101436,6.30046623 L7.07465978,12.2359501 Z" id="tick-icon"></path>
                        </g>
                    </g>
                </g>
            </g>
        </g>
    </g>
</svg>
