<?xml version="1.0" encoding="UTF-8"?>
<svg width="18px" height="24px" viewBox="0 0 18 24" version="1.1" xmlns="http://www.w3.org/2000/svg" xmlns:xlink="http://www.w3.org/1999/xlink">
    <!-- Generator: sketchtool 62 (101010) - https://sketch.com -->
    <title>95D8EA1B-E3FB-4254-B47E-859394D94FDF_icon</title>
    <desc>Created with sketchtool.</desc>
    <g id="Content-Pages" stroke="none" stroke-width="1" fill="none" fill-rule="evenodd">
        <g id="store_finder_v01" transform="translate(-1256.000000, -805.000000)" fill="#0AAD69">
            <g id="Content" transform="translate(174.000000, 397.000000)">
                <g id="Map" transform="translate(504.000000, 60.000000)">
                    <g id="Pins" transform="translate(113.000000, 63.000000)">
                        <path d="M474,296.383013 C474.523867,296.383013 475.010307,296.252138 475.459336,295.990385 C475.908364,295.728631 476.26384,295.378074 476.525773,294.938702 C476.787707,294.49933 476.918671,294.017898 476.918671,293.494391 C476.918671,292.970884 476.787707,292.484778 476.525773,292.036058 C476.26384,291.587338 475.908364,291.232106 475.459336,290.970353 C475.010307,290.708599 474.523867,290.577724 474,290.577724 C473.476133,290.577724 472.99437,290.708599 472.554696,290.970353 C472.115023,291.232106 471.764224,291.587338 471.502291,292.036058 C471.240358,292.484778 471.109393,292.970884 471.109393,293.494391 C471.109393,294.298348 471.390032,294.980766 471.951317,295.541667 C472.512603,296.102567 473.19549,296.383013 474,296.383013 Z M474,285.333333 C475.496762,285.333333 476.871891,285.697913 478.12543,286.427083 C479.360258,287.156254 480.342493,288.137814 481.072165,289.371795 C481.801836,290.624472 482.166667,291.998657 482.166667,293.494391 C482.166667,294.634888 481.886028,295.943636 481.324742,297.420673 C480.838295,298.67335 480.164762,300.028839 479.304124,301.487179 C478.593162,302.646373 477.77931,303.852291 476.862543,305.104968 C476.226419,305.983712 475.552886,306.843746 474.841924,307.685096 L474,308.666667 L473.158076,307.685096 C472.447114,306.843746 471.773581,305.983712 471.137457,305.104968 C470.22069,303.852291 469.406838,302.646373 468.695876,301.487179 C467.835238,300.028839 467.161705,298.67335 466.675258,297.420673 C466.113972,295.943636 465.833333,294.634888 465.833333,293.494391 C465.833333,291.998657 466.198164,290.624472 466.927835,289.371795 C467.657507,288.137814 468.639742,287.156254 469.87457,286.427083 C471.128109,285.697913 472.503238,285.333333 474,285.333333 Z" id="Location-2"></path>
                    </g>
                </g>
            </g>
        </g>
    </g>
</svg>
