<?xml version="1.0" encoding="UTF-8"?>
<svg width="18px" height="24px" viewBox="0 0 18 24" version="1.1" xmlns="http://www.w3.org/2000/svg" xmlns:xlink="http://www.w3.org/1999/xlink">
    <!-- Generator: sketchtool 62 (101010) - https://sketch.com -->
    <title>AD10ABFC-8E35-4D8F-BF4B-F3B19A6085E3_icon</title>
    <desc>Created with sketchtool.</desc>
    <g id="Content-Pages" stroke="none" stroke-width="1" fill="none" fill-rule="evenodd">
        <g id="store_finder_v01" transform="translate(-791.000000, -756.000000)" fill="#00D1FE">
            <g id="Content" transform="translate(174.000000, 397.000000)">
                <g id="Map" transform="translate(504.000000, 60.000000)">
                    <g id="Pins" transform="translate(113.000000, 63.000000)">
                        <path d="M9,247.383013 C9.52386669,247.383013 10.010307,247.252138 10.4593356,246.990385 C10.9083642,246.728631 11.2638399,246.378074 11.5257732,245.938702 C11.7877065,245.49933 11.9186712,245.017898 11.9186712,244.494391 C11.9186712,243.970884 11.7877065,243.484778 11.5257732,243.036058 C11.2638399,242.587338 10.9083642,242.232106 10.4593356,241.970353 C10.010307,241.708599 9.52386669,241.577724 9,241.577724 C8.47613331,241.577724 7.99437028,241.708599 7.55469645,241.970353 C7.11502262,242.232106 6.7642243,242.587338 6.50229095,243.036058 C6.24035761,243.484778 6.1093929,243.970884 6.1093929,244.494391 C6.1093929,245.298348 6.39003156,245.980766 6.9513173,246.541667 C7.51260304,247.102567 8.19549044,247.383013 9,247.383013 Z M9,236.333333 C10.496762,236.333333 11.8718914,236.697913 13.1254296,237.427083 C14.3602582,238.156254 15.3424935,239.137814 16.0721649,240.371795 C16.8018364,241.624472 17.1666667,242.998657 17.1666667,244.494391 C17.1666667,245.634888 16.886028,246.943636 16.3247423,248.420673 C15.8382946,249.67335 15.1647618,251.028839 14.3041237,252.487179 C13.5931618,253.646373 12.7793097,254.852291 11.862543,256.104968 C11.2264191,256.983712 10.5528863,257.843746 9.8419244,258.685096 L9,259.666667 L8.1580756,258.685096 C7.44711367,257.843746 6.77358088,256.983712 6.13745704,256.104968 C5.22069034,254.852291 4.40683822,253.646373 3.69587629,252.487179 C2.83523816,251.028839 2.16170537,249.67335 1.67525773,248.420673 C1.11397199,246.943636 0.833333333,245.634888 0.833333333,244.494391 C0.833333333,242.998657 1.19816359,241.624472 1.92783505,240.371795 C2.65750651,239.137814 3.63974182,238.156254 4.87457045,237.427083 C6.1281086,236.697913 7.50323803,236.333333 9,236.333333 Z" id="Location-8"></path>
                    </g>
                </g>
            </g>
        </g>
    </g>
</svg>
