<?xml version="1.0" encoding="UTF-8"?>
<svg width="18px" height="24px" viewBox="0 0 18 24" version="1.1" xmlns="http://www.w3.org/2000/svg" xmlns:xlink="http://www.w3.org/1999/xlink">
    <!-- Generator: sketchtool 62 (101010) - https://sketch.com -->
    <title>FF124DBC-100B-470B-A5F8-3A44ABFC9B09_icon</title>
    <desc>Created with sketchtool.</desc>
    <g id="Content-Pages" stroke="none" stroke-width="1" fill="none" fill-rule="evenodd">
        <g id="store_finder_v01" transform="translate(-1192.000000, -876.000000)" fill="#665AFF">
            <g id="Content" transform="translate(174.000000, 397.000000)">
                <g id="Map" transform="translate(504.000000, 60.000000)">
                    <g id="Pins" transform="translate(113.000000, 63.000000)">
                        <path d="M410,367.383013 C410.523867,367.383013 411.010307,367.252138 411.459336,366.990385 C411.908364,366.728631 412.26384,366.378074 412.525773,365.938702 C412.787707,365.49933 412.918671,365.017898 412.918671,364.494391 C412.918671,363.970884 412.787707,363.484778 412.525773,363.036058 C412.26384,362.587338 411.908364,362.232106 411.459336,361.970353 C411.010307,361.708599 410.523867,361.577724 410,361.577724 C409.476133,361.577724 408.99437,361.708599 408.554696,361.970353 C408.115023,362.232106 407.764224,362.587338 407.502291,363.036058 C407.240358,363.484778 407.109393,363.970884 407.109393,364.494391 C407.109393,365.298348 407.390032,365.980766 407.951317,366.541667 C408.512603,367.102567 409.19549,367.383013 410,367.383013 Z M410,356.333333 C411.496762,356.333333 412.871891,356.697913 414.12543,357.427083 C415.360258,358.156254 416.342493,359.137814 417.072165,360.371795 C417.801836,361.624472 418.166667,362.998657 418.166667,364.494391 C418.166667,365.634888 417.886028,366.943636 417.324742,368.420673 C416.838295,369.67335 416.164762,371.028839 415.304124,372.487179 C414.593162,373.646373 413.77931,374.852291 412.862543,376.104968 C412.226419,376.983712 411.552886,377.843746 410.841924,378.685096 L410,379.666667 L409.158076,378.685096 C408.447114,377.843746 407.773581,376.983712 407.137457,376.104968 C406.22069,374.852291 405.406838,373.646373 404.695876,372.487179 C403.835238,371.028839 403.161705,369.67335 402.675258,368.420673 C402.113972,366.943636 401.833333,365.634888 401.833333,364.494391 C401.833333,362.998657 402.198164,361.624472 402.927835,360.371795 C403.657507,359.137814 404.639742,358.156254 405.87457,357.427083 C407.128109,356.697913 408.503238,356.333333 410,356.333333 Z" id="Location-3"></path>
                    </g>
                </g>
            </g>
        </g>
    </g>
</svg>
