<?xml version="1.0" encoding="UTF-8"?>
<svg width="18px" height="24px" viewBox="0 0 18 24" version="1.1" xmlns="http://www.w3.org/2000/svg" xmlns:xlink="http://www.w3.org/1999/xlink">
    <!-- Generator: sketchtool 62 (101010) - https://sketch.com -->
    <title>CB7338C1-8CE0-41CD-9DBE-AC9E5AA28E81_icon</title>
    <desc>Created with sketchtool.</desc>
    <g id="Content-Pages" stroke="none" stroke-width="1" fill="none" fill-rule="evenodd">
        <g id="store_finder_v01" transform="translate(-1071.000000, -805.000000)" fill="#EB004F">
            <g id="Content" transform="translate(174.000000, 397.000000)">
                <g id="Map" transform="translate(504.000000, 60.000000)">
                    <g id="Pins" transform="translate(113.000000, 63.000000)">
                        <path d="M289,296.383013 C289.523867,296.383013 290.010307,296.252138 290.459336,295.990385 C290.908364,295.728631 291.26384,295.378074 291.525773,294.938702 C291.787707,294.49933 291.918671,294.017898 291.918671,293.494391 C291.918671,292.970884 291.787707,292.484778 291.525773,292.036058 C291.26384,291.587338 290.908364,291.232106 290.459336,290.970353 C290.010307,290.708599 289.523867,290.577724 289,290.577724 C288.476133,290.577724 287.99437,290.708599 287.554696,290.970353 C287.115023,291.232106 286.764224,291.587338 286.502291,292.036058 C286.240358,292.484778 286.109393,292.970884 286.109393,293.494391 C286.109393,294.298348 286.390032,294.980766 286.951317,295.541667 C287.512603,296.102567 288.19549,296.383013 289,296.383013 Z M289,285.333333 C290.496762,285.333333 291.871891,285.697913 293.12543,286.427083 C294.360258,287.156254 295.342493,288.137814 296.072165,289.371795 C296.801836,290.624472 297.166667,291.998657 297.166667,293.494391 C297.166667,294.634888 296.886028,295.943636 296.324742,297.420673 C295.838295,298.67335 295.164762,300.028839 294.304124,301.487179 C293.593162,302.646373 292.77931,303.852291 291.862543,305.104968 C291.226419,305.983712 290.552886,306.843746 289.841924,307.685096 L289,308.666667 L288.158076,307.685096 C287.447114,306.843746 286.773581,305.983712 286.137457,305.104968 C285.22069,303.852291 284.406838,302.646373 283.695876,301.487179 C282.835238,300.028839 282.161705,298.67335 281.675258,297.420673 C281.113972,295.943636 280.833333,294.634888 280.833333,293.494391 C280.833333,291.998657 281.198164,290.624472 281.927835,289.371795 C282.657507,288.137814 283.639742,287.156254 284.87457,286.427083 C286.128109,285.697913 287.503238,285.333333 289,285.333333 Z" id="Location-7"></path>
                    </g>
                </g>
            </g>
        </g>
    </g>
</svg>
