<?xml version="1.0" encoding="UTF-8"?>
<svg width="14px" height="16px" viewBox="0 0 14 16" version="1.1" xmlns="http://www.w3.org/2000/svg" xmlns:xlink="http://www.w3.org/1999/xlink">
    <!-- Generator: sketchtool 62 (101010) - https://sketch.com -->
    <title>5B8497FA-23C2-4436-84AA-BD76D5D768AC</title>
    <desc>Created with sketchtool.</desc>
    <g id="Style-Guide" stroke="none" stroke-width="1" fill="none" fill-rule="evenodd">
        <g id="styleguide_v01" transform="translate(-116.000000, -1962.000000)" fill="#FFFFFF" fill-rule="nonzero">
            <g id="Notifcation-Banners" transform="translate(100.000000, 1754.000000)">
                <g id="Notifications" transform="translate(0.000000, 64.000000)">
                    <g id="Neutral" transform="translate(0.000000, 128.000000)">
                        <path d="M22.9999833,32 C24.1037404,32 24.9990325,31.1046727 24.9990325,30 L21.0009341,30 C21.0009341,31.1046727 21.8962262,32 22.9999833,32 Z M29.7308938,27.3215701 C29.9183933,27.5228331 30.001523,27.7640739 29.9999997,28.0000048 C29.9968538,28.5125158 29.5943279,29.0000024 28.9968562,29.0000024 L17.0031104,29.0000024 C16.4056387,29.0000024 16.0034485,28.5125158 15.9999577,28.0000048 C15.9984436,27.7640739 16.0815733,27.5231382 16.2690728,27.3215701 L16.5953008,26.9741807 C17.2078305,26.3002304 18.0024977,25.1812564 18.0024977,22.5000179 C18.0024977,20.0718926 19.7049777,18.1281411 22.000596,17.6512746 L22.000596,17.0000334 C22.000596,16.4478473 22.4481047,16.0000334 22.9999786,16.0000334 C23.5518619,16.0000334 23.9993706,16.4478473 23.9993706,17.0000334 L23.9993706,17.6512746 C26.2949889,18.1281411 27.997469,20.0718926 27.997469,22.5000179 C27.997469,25.6968792 29.127166,26.672829 29.7308938,27.3215701 Z" id="bell-icon"></path>
                    </g>
                </g>
            </g>
        </g>
    </g>
</svg>